<?xml version="1.0" encoding="UTF-8"?>
<!DOCTYPE svg PUBLIC "-//W3C//DTD SVG 1.1//EN" "http://www.w3.org/Graphics/SVG/1.1/DTD/svg11.dtd">
<svg xmlns="http://www.w3.org/2000/svg" xmlns:xlink="http://www.w3.org/1999/xlink">
	<defs>
		<clipPath id="Clock-a">
			<path fill="#fff" d="M0 0h20v20H0z"/>
		</clipPath>

		<clipPath id="Earth-a">
			<path fill="#fff" d="M0 0h20v20H0z"/>
		</clipPath>
	</defs>
<symbol id="arrow-left" viewBox="0 0 24 24">
	<path d="M20 12H4m0 0 6-6m-6 6 6 6"/>
</symbol>
<symbol id="arrow-right" viewBox="0 0 24 24">
	<path d="M4 12h16m0 0-6-6m6 6-6 6"/>
</symbol>
<symbol id="arrow-up" viewBox="0 0 24 24">
	<path d="M12 20V4m0 0-6 6m6-6 6 6"/>
</symbol>
<symbol id="Bag" viewBox="0 0 32 32">
	<path stroke="#00C293" stroke-width="2" d="M5 26.193C6.596 28 9.57 28 15.52 28h.96c5.949 0 8.923 0 10.52-1.807m-22 0c-1.599-1.807-1.05-4.55.046-10.036.78-3.901 1.169-5.852 2.649-7.005M4.999 26.193Zm22.002 0c1.598-1.807 1.05-4.55-.047-10.036-.78-3.901-1.169-5.852-2.649-7.005m2.696 17.041Zm-2.696-17.04C22.825 8 20.71 8 16.48 8h-.96c-4.23 0-6.346 0-7.825 1.152m16.61 0Zm-16.61 0Z"/>
	<path stroke="#00C293" stroke-linecap="round" stroke-linejoin="round" stroke-width="2" d="m13.333 18.267 1.778 1.6 3.556-4"/>
	<path stroke="#00C293" stroke-linecap="round" stroke-width="2" d="M12 8V6.667a4 4 0 0 1 8 0V8"/>
</symbol>
<symbol id="Cart" viewBox="0 0 32 32">
	<path stroke="#00C293" stroke-width="2" d="M10 24a2 2 0 1 1 0 4 2 2 0 0 1 0-4ZM22 24a2 2 0 1 1 0 4 2 2 0 0 1 0-4Z"/>
	<path fill="#00C293" d="m3.015 4.122.332-.943-.332.943Zm-.017-1.065a1 1 0 1 0-.663 1.886l.663-1.886Zm3.116 2.707L6.94 5.2l-.826.564ZM7.85 19.448l-.725.688.725-.688Zm19.694-6.271.98.202v-.006l-.98-.196Zm-.667 3.233.98.202-.98-.202Zm.769-7.48-.793.61.793-.61Zm-2.135 11.137-.631-.775.631.775Zm-17.9-7.054V9.384h-2v3.63h2ZM3.347 3.18l-.349-.122-.663 1.886.348.123.664-1.887Zm11.236 18.488h7.07v-2h-7.07v2ZM7.611 9.384c0-.942.001-1.73-.068-2.369C7.47 6.354 7.316 5.75 6.94 5.2L5.29 6.328c.12.176.213.418.266.903.054.507.056 1.167.056 2.153h2ZM2.683 5.066c.89.313 1.475.52 1.906.731.404.199.582.36.7.531L6.94 5.2c-.379-.555-.883-.91-1.47-1.198-.562-.276-1.278-.526-2.123-.823l-.664 1.887Zm2.928 7.947c0 1.937.018 3.333.2 4.4.196 1.14.585 1.955 1.314 2.723l1.45-1.376c-.426-.45-.656-.89-.792-1.684-.148-.866-.172-2.077-.172-4.063h-2Zm8.972 6.654c-1.889 0-3.2-.003-4.187-.143-.953-.135-1.457-.38-1.82-.764l-1.451 1.376c.791.835 1.795 1.199 2.99 1.369 1.16.164 2.639.162 4.468.162v-2ZM6.611 9.16h16.174v-2H6.611v2Zm19.953 3.815-.666 3.233 1.959.404.666-3.233-1.959-.404ZM22.785 9.16c1.142 0 2.147.001 2.94.09.394.044.689.105.896.178.215.076.25.134.232.111l1.586-1.22c-.314-.407-.754-.637-1.155-.778-.409-.143-.87-.227-1.337-.279-.928-.103-2.057-.102-3.162-.102v2Zm5.74 4.213c.225-1.13.417-2.08.463-2.84.049-.78-.04-1.551-.55-2.213l-1.585 1.22c.083.107.174.3.14.87-.037.592-.193 1.383-.43 2.571l1.961.392Zm-6.871 8.294c1.015 0 1.868.001 2.555-.083.714-.087 1.366-.278 1.934-.742l-1.263-1.55c-.167.136-.404.245-.914.307-.538.066-1.247.068-2.312.068v2Zm4.244-5.459c-.215 1.044-.36 1.738-.533 2.25-.164.488-.318.698-.485.834l1.263 1.55c.569-.463.887-1.063 1.117-1.744.221-.656.392-1.491.597-2.486l-1.96-.404Z"/>
</symbol>
<symbol id="check" viewBox="0 0 20 20">
	<path fill="#00C293" fill-rule="evenodd" d="M3.707 9.293a1 1 0 0 0-1.414 1.414l5 5a1 1 0 0 0 1.45-.038l9-10a1 1 0 1 0-1.486-1.338l-8.295 9.217-4.255-4.255Z" clip-rule="evenodd"/>
</symbol>
<symbol id="Clock" viewBox="0 0 20 20">
	<g stroke="#ABB6CC" stroke-width="2" clip-path="url(#Clock-a)">
		<circle cx="10" cy="10" r="8.333"/>
		<path stroke-linecap="round" stroke-linejoin="round" d="M10 6.667V10l2.083 2.083"/>
	</g>

</symbol>
<symbol id="copy" viewBox="0 0 20 20">
	<path fill-rule="evenodd" d="m3 14 .117-.007a1 1 0 0 0 .876-.876L4 13V4h9l.117-.007a1 1 0 0 0 0-1.986L13 2H3l-.117.007a1 1 0 0 0-.876.876L2 3v10l.007.117a1 1 0 0 0 .876.876L3 14Zm14 4 .117-.007a1 1 0 0 0 .876-.876L18 17V7l-.007-.117a1 1 0 0 0-.764-.857l-.112-.02L17 6H7l-.117.007a1 1 0 0 0-.876.876L6 7v10l.007.117a1 1 0 0 0 .764.857l.112.02L7 18h10ZM8 8v8h8V8H8Z" clip-rule="evenodd"/>
</symbol>
<symbol id="doc-med" viewBox="0 0 24 24">
	<path stroke="#ABB6CC" stroke-width="2" d="M3 10c0-3.771 0-5.657 1.172-6.828C5.343 2 7.229 2 11 2h2c3.771 0 5.657 0 6.828 1.172C21 4.343 21 6.229 21 10v4c0 3.771 0 5.657-1.172 6.828C18.657 22 16.771 22 13 22h-2c-3.771 0-5.657 0-6.828-1.172C3 19.657 3 17.771 3 14v-4Z"/>
	<path stroke="#EB135B" stroke-linecap="round" stroke-width="2" d="M12 8v2m0 0v2m0-2h-2m2 0h2"/>
	<path stroke="#ABB6CC" stroke-linecap="round" stroke-width="2" d="M8 18h8"/>
</symbol>
<symbol id="Earth" viewBox="0 0 20 20">
	<g clip-path="url(#Earth-a)">
		<circle cx="10" cy="10" r="8.333"/>
		<path d="M5 3.925c.65.592 1.99 2.21 2.146 3.948.146 1.623 1.217 2.942 2.854 2.96.63.007 1.265-.447 1.264-1.076 0-.195-.033-.394-.083-.577a1.178 1.178 0 0 1 .069-.847c.508-1.048 1.508-1.33 2.3-1.898.351-.253.672-.519.813-.733.39-.592.78-1.777.585-2.369M18.333 10.833c-.274.776-.468 2.813-3.568 2.845 0 0-2.745 0-3.568 1.552-.659 1.241-.274 2.586 0 3.103"/>
	</g>

</symbol>
<symbol id="Exit" viewBox="0 0 32 32">
	<path stroke="#00C293" stroke-width="2" d="M12 6h-1.333c-3.143 0-4.714 0-5.69.976C4 7.953 4 9.524 4 12.666v6.667c0 3.143 0 4.714.976 5.69.977.977 2.548.977 5.69.977H12M12 8.635c0-3.058 0-4.587.943-5.423.943-.836 2.384-.585 5.267-.082l3.105.541c3.193.557 4.79.836 5.737 2.007C28 6.848 28 8.542 28 11.93v8.14c0 3.388 0 5.081-.948 6.252-.948 1.171-2.544 1.45-5.737 2.007l-3.105.541c-2.883.503-4.324.755-5.267-.082C12 27.953 12 26.423 12 23.365V8.635Z"/>
	<path stroke="#00C293" stroke-linecap="round" stroke-width="2" d="M16 14.667v2.666"/>
</symbol>
<symbol id="Eye" viewBox="0 0 20 20">
	<path stroke="#ABB6CC" stroke-width="2" d="M2.147 12.884C1.382 11.918 1 11.434 1 10s.382-1.918 1.147-2.884C3.675 5.187 6.237 3 10 3c3.764 0 6.325 2.187 7.853 4.116C18.617 8.082 19 8.566 19 10s-.383 1.918-1.147 2.884C16.325 14.813 13.763 17 10 17c-3.764 0-6.325-2.187-7.853-4.116Z"/>
	<path stroke="#ABB6CC" stroke-width="2" d="M12.5 10a2.5 2.5 0 1 1-5 0 2.5 2.5 0 0 1 5 0Z"/>
</symbol>
<symbol id="Heart" viewBox="0 0 24 24">
	<path stroke-linecap="round" stroke-linejoin="round" d="M21 8.25c0-2.485-2.099-4.5-4.688-4.5-1.935 0-3.597 1.126-4.312 2.733-.715-1.607-2.377-2.733-4.313-2.733C5.1 3.75 3 5.765 3 8.25c0 7.22 9 12 9 12s9-4.78 9-12z"/>
</symbol>
<symbol id="loading" viewBox="0 0 20 20">
	<path stroke="#ABB6CC" stroke-linecap="round" stroke-width="2" d="M19 10a9 9 0 1 1-9-9"/>
</symbol>
<symbol id="loupe" viewBox="0 0 24 24">
	<circle cx="9.5" cy="9.5" r="9.5" transform="matrix(-1 0 0 1 22 2)"/>
	<path d="M5.5 18.5 2 22"/>
</symbol>
<symbol id="ok" viewBox="0 0 14 24">
	<path fill="#fff" fill-rule="evenodd" d="M6.986 12.41c-3.426 0-6.27-2.816-6.27-6.148C.715 2.815 3.56 0 6.985 0c3.542 0 6.27 2.815 6.27 6.262 0 3.332-2.729 6.147-6.27 6.147Zm0-8.79c-1.452 0-2.555 1.206-2.555 2.642S5.534 8.79 6.986 8.79c1.51 0 2.555-1.092 2.555-2.528S8.495 3.62 6.986 3.62Zm2.496 13.902 3.542 3.39c.697.747.697 1.838 0 2.528-.755.747-1.916.747-2.496 0l-3.542-3.447L3.56 23.44c-.348.345-.813.517-1.335.517-.407 0-.871-.172-1.278-.517-.696-.69-.696-1.781 0-2.528l3.6-3.39a16.485 16.485 0 0 1-3.716-1.608c-.87-.46-1.045-1.609-.58-2.47.58-.862 1.625-1.092 2.554-.518a8.093 8.093 0 0 0 8.361 0c.93-.574 2.032-.344 2.555.518.522.861.29 2.01-.523 2.47-1.103.69-2.38 1.206-3.716 1.609Z" clip-rule="evenodd"/>
</symbol>
<symbol id="Pills" viewBox="0 0 24 24">
	<path fill="#00C293" fill-rule="evenodd" d="M7.592 11.281a5.437 5.437 0 1 1 7.69-7.689l1.922 1.923-.096.495-.001.009-.013.054a4.106 4.106 0 0 1-.07.244c-.07.219-.19.545-.385.948-.388.806-1.076 1.923-2.264 3.11-1.188 1.189-2.304 1.876-3.11 2.264-.403.195-.73.315-.948.384a4.157 4.157 0 0 1-.298.084l-.009.002-.495.095-1.923-1.923ZM13.53 4.47a.75.75 0 1 0-1.06 1.06l1.5 1.5a.75.75 0 1 0 1.06-1.06l-1.5-1.5Z" clip-rule="evenodd"/>
	<path fill="#00C293" d="m18.452 6.774.003-.008 1.953 1.952a5.437 5.437 0 1 1-7.69 7.69l-1.952-1.953.007-.003a8.87 8.87 0 0 0 1.143-.461c.943-.455 2.202-1.236 3.52-2.554 1.318-1.319 2.1-2.577 2.554-3.52.227-.471.373-.863.462-1.143ZM5.286 10.648a6 6 0 1 0 8.067 8.067 6.936 6.936 0 0 1-1.695-1.247l-5.126-5.126a6.932 6.932 0 0 1-1.246-1.694Z"/>
</symbol>
<symbol id="pin" viewBox="0 0 16 16">
	<path fill-rule="evenodd" d="M6.97 15.08 8 16l1.03-.92C12.323 12.149 14 9.543 14 7.104 14 3.64 11.343 1 8 1S2 3.64 2 7.103c0 2.44 1.678 5.045 4.97 7.978ZM11 7a3 3 0 1 0-6 0 3 3 0 0 0 6 0Z" clip-rule="evenodd"/>
</symbol>
<symbol id="Star" viewBox="0 0 18 18">
	<path fill="#F90" d="M6.865 4.056C7.815 2.352 8.29 1.5 9 1.5c.71 0 1.185.852 2.135 2.556l.246.441c.27.484.405.727.615.886.21.16.473.22.997.338l.477.108c1.845.417 2.768.626 2.987 1.332.22.705-.41 1.44-1.667 2.911l-.325.38c-.358.419-.537.628-.617.886-.08.259-.053.538 0 1.095l.05.508c.19 1.962.285 2.943-.29 3.38-.574.435-1.438.038-3.165-.758l-.447-.205c-.49-.226-.736-.34-.996-.34s-.506.114-.996.34l-.447.205c-1.727.796-2.591 1.193-3.166.757-.574-.436-.48-1.417-.289-3.38l.05-.507c.053-.557.08-.836 0-1.095-.08-.258-.26-.467-.617-.885l-.325-.38C1.952 8.601 1.324 7.865 1.543 7.16c.22-.706 1.142-.915 2.987-1.332l.477-.108c.524-.119.786-.178.997-.338.21-.16.345-.402.615-.886l.246-.44Z"/>
</symbol>
<symbol id="tg" viewBox="0 0 22 17">
	<path fill="#fff" d="M1.482 7.308c6.77-2.765 15.53-6.135 16.74-6.602 3.172-1.22 4.145-.987 3.66 1.717-.349 1.944-1.354 8.378-2.156 12.384-.475 2.375-1.543 2.656-3.22 1.629-.807-.495-4.88-2.995-5.764-3.582-.806-.535-1.92-1.179-.524-2.446.497-.452 3.752-3.337 6.289-5.583.332-.295-.085-.78-.469-.543a3087.12 3087.12 0 0 0-8.762 5.406c-.911.574-1.787.837-3.358.418-1.187-.316-2.347-.694-2.798-.837-1.738-.554-1.326-1.272.362-1.961Z"/>
</symbol>
<symbol id="triangle-left" viewBox="0 0 20 20">
	<path d="M12.5 4.167 7.5 10l5 5.833"/>
</symbol>
<symbol id="triangle-right" viewBox="0 0 20 20">
	<path d="m7.5 4.167 5 5.833-5 5.833"/>
</symbol>
<symbol id="vk" viewBox="0 0 25 15">
	<path fill="#fff" d="M13.572 15C5.372 15 .695 9.37.5 0h4.107c.135 6.877 3.163 9.79 5.562 10.39V0h3.868v5.93c2.368-.254 4.856-2.957 5.696-5.93H23.6c-.644 3.664-3.343 6.366-5.261 7.477 1.919.901 4.992 3.259 6.161 7.523h-4.258c-.914-2.853-3.192-5.06-6.205-5.36V15h-.465Z"/>
</symbol>
</svg>